<?xml version="1.0" encoding="UTF-8"?>
<svg version="1.1" xmlns="http://www.w3.org/2000/svg" width="70" height="70">
<path d="M0 0 C2.375 -0.125 2.375 -0.125 5 0 C5.66 0.66 6.32 1.32 7 2 C11.34194936 1.90304884 11.34194936 1.90304884 15 0 C16.66617115 -0.04063832 18.33388095 -0.042721 20 0 C20 1.98 20 3.96 20 6 C20.33 5.67 20.66 5.34 21 5 C24.32028888 4.91901734 26.40113047 5.53791641 29.03515625 7.5703125 C36.99579955 15.15896312 40.96850076 23.87893593 41.25 34.875 C41.265625 37.1171875 41.265625 37.1171875 41 39 C40.34 39.66 39.68 40.32 39 41 C38.67 40.67 38.34 40.34 38 40 C38.12375 40.804375 38.2475 41.60875 38.375 42.4375 C37.73626949 48.50543981 34.43619703 52.98693193 29.7734375 56.83984375 C21.61015188 62.42309428 13.30575115 65.19621042 3.375 63.375 C-5.37662196 61.02175191 -11.88119964 55.38288514 -17 48 C-18.07087787 45.28455968 -18.50702396 42.90855863 -19 40 C-19.556875 38.948125 -19.556875 38.948125 -20.125 37.875 C-22.69189822 32.37450382 -20.14490899 26.31774433 -18.26953125 20.9765625 C-15.65195336 14.83934911 -11.65777063 9.62677604 -6 6 C-3.25 5.1875 -3.25 5.1875 -1 5 C-0.67 5.33 -0.34 5.66 0 6 C0 4.02 0 2.04 0 0 Z M-2 10 C-2 13.3 -2 16.6 -2 20 C-2.99 20.495 -2.99 20.495 -4 21 C-4 21.66 -4 22.32 -4 23 C-4.99 23.495 -4.99 23.495 -6 24 C-6.99 24.66 -7.98 25.32 -9 26 C-9 27.32 -9 28.64 -9 30 C-7.02 30.66 -5.04 31.32 -3 32 C-2.67 30.35 -2.34 28.7 -2 27 C-0.35 27 1.3 27 3 27 C3.5534764 29.07553648 4 30.84365964 4 33 C1.69 33 -0.62 33 -3 33 C-3 33.66 -3 34.32 -3 35 C-5.64 35 -8.28 35 -11 35 C-11 35.33 -11 35.66 -11 36 C-8.69 36.33 -6.38 36.66 -4 37 C-4 37.66 -4 38.32 -4 39 C-5.98 39.33 -7.96 39.66 -10 40 C-9.01 42.31 -8.02 44.62 -7 47 C-6.34 47 -5.68 47 -5 47 C-3.375 49 -3.375 49 -2 51 C-0.515 50.505 -0.515 50.505 1 50 C1.37125 50.61875 1.7425 51.2375 2.125 51.875 C4.48622906 54.5510596 6.60131652 55.0936844 10 56 C10.33 55.34 10.66 54.68 11 54 C12.65 54 14.3 54 16 54 C16.66 52.35 17.32 50.7 18 49 C18.66 49 19.32 49 20 49 C20.33 49.99 20.66 50.98 21 52 C21.33 51.01 21.66 50.02 22 49 C22.66 49 23.32 49 24 49 C24 48.01 24 47.02 24 46 C24.99 46.33 25.98 46.66 27 47 C27.77772405 44.66682784 28.42415568 42.38564077 29 40 C27.35 39.67 25.7 39.34 24 39 C24 38.34 24 37.68 24 37 C26.31 36.67 28.62 36.34 31 36 C31 35.67 31 35.34 31 35 C29.35 34.67 27.7 34.34 26 34 C26 33.67 26 33.34 26 33 C22.7 33 19.4 33 16 33 C16.33 31.02 16.66 29.04 17 27 C18.65 27 20.3 27 22 27 C22.495 29.475 22.495 29.475 23 32 C25.31 31.34 27.62 30.68 30 30 C29.34 28.35 28.68 26.7 28 25 C27.01 25.33 26.02 25.66 25 26 C25.33 25.01 25.66 24.02 26 23 C25.34 23 24.68 23 24 23 C24 22.34 24 21.68 24 21 C23.34 20.34 22.68 19.68 22 19 C21.73008094 16.31160615 21.91262643 13.70858064 22 11 C21.34 10.67 20.68 10.34 20 10 C18.5216774 12.95664519 18.93967217 15.74229737 19 19 C17.02 18.34 15.04 17.68 13 17 C13 16.34 13 15.68 13 15 C12.01 15 11.02 15 10 15 C10 13.35 10 11.7 10 10 C6.19220105 12.31779067 3.72032104 13.84255748 2 18 C1.01 18.495 1.01 18.495 0 19 C0.20625 18.2575 0.4125 17.515 0.625 16.75 C1.04408751 13.67669159 0.61949011 12.57213134 -1 10 C-1.33 10 -1.66 10 -2 10 Z M-10 32 C-6 33 -6 33 -6 33 Z M-10 37 C-10 37.33 -10 37.66 -10 38 C-8.35 38 -6.7 38 -5 38 C-5 37.67 -5 37.34 -5 37 C-6.65 37 -8.3 37 -10 37 Z M25 37 C25 37.33 25 37.66 25 38 C26.65 38 28.3 38 30 38 C30 37.67 30 37.34 30 37 C28.35 37 26.7 37 25 37 Z M-17 38 C-13 39 -13 39 -13 39 Z M33 38 C37 39 37 39 37 39 Z " fill="#C6C6C6" transform="translate(27,4)"/>
<path d="M0 0 C0.99 0.99 1.98 1.98 3 3 C6.64541845 2.76522801 6.64541845 2.76522801 10 2 C15 11.77272727 15 11.77272727 15 17 C14.34 17 13.68 17 13 17 C13 18.65 13 20.3 13 22 C14.32 22 15.64 22 17 22 C17.08934285 25.84174237 16.93263402 29.26946392 16 33 C15.773125 33.94875 15.54625 34.8975 15.3125 35.875 C12.43143644 42.73467513 7.65574799 46.90983129 1 50 C-3.40817496 50.93261811 -7.68725211 51.192119 -12.1875 51.25 C-14.00314453 51.28867188 -14.00314453 51.28867188 -15.85546875 51.328125 C-19 51 -19 51 -20.92578125 49.609375 C-22 48 -22 48 -22 46 C-22.99 46 -23.98 46 -25 46 C-25.66 44.68 -26.32 43.36 -27 42 C-28.98 42.495 -28.98 42.495 -31 43 C-31 42.01 -31 41.02 -31 40 C-27.67395049 38.89131683 -24.46941546 38.45822468 -21 38 C-20.608125 38.61875 -20.21625 39.2375 -19.8125 39.875 C-17.66425643 42.39363039 -16.20541216 43.21819216 -13 44 C-10.86644906 43.18330183 -10.86644906 43.18330183 -9 42 C-8.01 42 -7.02 42 -6 42 C-5.7525 41.360625 -5.505 40.72125 -5.25 40.0625 C-4 38 -4 38 -2 37.1875 C0 37 0 37 2 38 C2 37.01 2 36.02 2 35 C2.66 35 3.32 35 4 35 C4 34.01 4 33.02 4 32 C4.66 32 5.32 32 6 32 C6 31.01 6 30.02 6 29 C4.68 28.67 3.36 28.34 2 28 C1.67 26.35 1.34 24.7 1 23 C-1.31 22.67 -3.62 22.34 -6 22 C-6.625 20.1875 -6.625 20.1875 -7 18 C-6.34 17.01 -5.68 16.02 -5 15 C-2.375 14.8125 -2.375 14.8125 0 15 C0.66 16.65 1.32 18.3 2 20 C3.32 19.34 4.64 18.68 6 18 C5.505 16.515 5.505 16.515 5 15 C4.34 15 3.68 15 3 15 C2.505 12.525 2.505 12.525 2 10 C1.01 9.67 0.02 9.34 -1 9 C-0.67 6.03 -0.34 3.06 0 0 Z M3 26 C3 26.33 3 26.66 3 27 C4.65 27 6.3 27 8 27 C8 26.67 8 26.34 8 26 C6.35 26 4.7 26 3 26 Z M11 27 C15 28 15 28 15 28 Z " fill="#E9E9E8" transform="translate(49,15)"/>
<path d="M0 0 C0 1.98 0 3.96 0 6 C0.33 5.67 0.66 5.34 1 5 C4.32028888 4.91901734 6.40113047 5.53791641 9.03515625 7.5703125 C16.99579955 15.15896312 20.96850076 23.87893593 21.25 34.875 C21.265625 37.1171875 21.265625 37.1171875 21 39 C20.34 39.66 19.68 40.32 19 41 C19 38.36 19 35.72 19 33 C17.68 33 16.36 33 15 33 C14.67 32.01 14.34 31.02 14 30 C14.33 29.34 14.66 28.68 15 28 C15.66 28 16.32 28 17 28 C15.35 23.38 13.7 18.76 12 14 C9.69 14.33 7.38 14.66 5 15 C2.5625 13.0625 2.5625 13.0625 1 11 C-0.96822886 12.96822886 -0.66248381 16.34808709 -1 19 C-1.94875 18.814375 -2.8975 18.62875 -3.875 18.4375 C-6.89868793 17.71313368 -6.89868793 17.71313368 -9 19 C-9 18.01 -9 17.02 -9 16 C-9.66 15.67 -10.32 15.34 -11 15 C-11 13.68 -11 12.36 -11 11 C-11.48210938 11.5775 -11.96421875 12.155 -12.4609375 12.75 C-13.40839844 13.86375 -13.40839844 13.86375 -14.375 15 C-15.31472656 16.11375 -15.31472656 16.11375 -16.2734375 17.25 C-16.84320313 17.8275 -17.41296875 18.405 -18 19 C-18.66 19 -19.32 19 -20 19 C-20.33 16.03 -20.66 13.06 -21 10 C-18.94921875 9.34895833 -16.8984375 8.69791667 -14.84765625 8.046875 C-14.23792969 7.70140625 -13.62820312 7.3559375 -13 7 C-12.63509609 5.67495886 -12.30119206 4.34095944 -12 3 C-7.92723652 0.80697351 -4.63975825 -0.4217962 0 0 Z " fill="#999999" transform="translate(47,4)"/>
<path d="M0 0 C0.99 0.99 1.98 1.98 3 3 C6.64541845 2.76522801 6.64541845 2.76522801 10 2 C15 11.77272727 15 11.77272727 15 17 C14.34 17 13.68 17 13 17 C13 18.65 13 20.3 13 22 C14.32 22 15.64 22 17 22 C17 23.98 17 25.96 17 28 C14.69 27.34 12.38 26.68 10 26 C10.33 25.01 10.66 24.02 11 23 C10.34 23.33 9.68 23.66 9 24 C7.125 24.1328125 7.125 24.1328125 5 24.125 C3.948125 24.12886719 3.948125 24.12886719 2.875 24.1328125 C1 24 1 24 -1 23 C-2.66194453 22.64386903 -4.328451 22.30791692 -6 22 C-6.625 20.1875 -6.625 20.1875 -7 18 C-6.01 16.515 -6.01 16.515 -5 15 C-2.375 14.8125 -2.375 14.8125 0 15 C0.66 16.65 1.32 18.3 2 20 C3.32 19.34 4.64 18.68 6 18 C5.67 17.01 5.34 16.02 5 15 C4.34 15 3.68 15 3 15 C2.67 13.35 2.34 11.7 2 10 C1.01 9.67 0.02 9.34 -1 9 C-0.67 6.03 -0.34 3.06 0 0 Z " fill="#CCCCCB" transform="translate(49,15)"/>
<path d="M0 0 C-0.33 0.99 -0.66 1.98 -1 3 C-3.5625 4.1875 -3.5625 4.1875 -6 5 C-5.34 5.33 -4.68 5.66 -4 6 C-2.9296875 7.84765625 -2.9296875 7.84765625 -1.875 10.0625 C-1.52179687 10.79597656 -1.16859375 11.52945313 -0.8046875 12.28515625 C-0.53914063 12.85105469 -0.27359375 13.41695312 0 14 C-1.98 14.66 -3.96 15.32 -6 16 C-5.01 16 -4.02 16 -3 16 C-2.34 16 -1.68 16 -1 16 C-0.67 17.65 -0.34 19.3 0 21 C1.32 20.67 2.64 20.34 4 20 C4.144375 20.639375 4.28875 21.27875 4.4375 21.9375 C4.81007181 23.97545146 4.81007181 23.97545146 6 25 C7.34267413 25.08631874 8.68974322 25.10706473 10.03515625 25.09765625 C10.84404297 25.09443359 11.65292969 25.09121094 12.48632812 25.08789062 C13.7615332 25.07532227 13.7615332 25.07532227 15.0625 25.0625 C15.91650391 25.05798828 16.77050781 25.05347656 17.65039062 25.04882812 C19.76695663 25.03700373 21.88348685 25.01906769 24 25 C18.77287207 28.48475195 12.4690346 28.49647164 6.375 27.375 C-2.22750183 25.06184924 -9.18060696 19.46344907 -14 12 C-14.89210169 8.81254476 -15 6.34903804 -15 3 C-11.97265625 2.26757812 -11.97265625 2.26757812 -8.9453125 1.53515625 C-3.07117812 -0.08082048 -3.07117812 -0.08082048 0 0 Z " fill="#EBEBEA" transform="translate(24,40)"/>
<path d="M0 0 C0.66 0.99 1.32 1.98 2 3 C4.33333333 4.41666667 4.33333333 4.41666667 7 5 C9.13355094 4.18330183 9.13355094 4.18330183 11 3 C11.99 3 12.98 3 14 3 C15.70532323 1.05990478 15.70532323 1.05990478 17 -1 C17 0.65 17 2.3 17 4 C17.99 3.67 18.98 3.34 20 3 C22 6 22 6 22 9 C15.45122733 12.74215581 8.41389009 12.95002109 1 12 C-0.921875 10.6015625 -0.921875 10.6015625 -2 9 C-2 8.34 -2 7.68 -2 7 C-2.99 7 -3.98 7 -5 7 C-5.66 5.68 -6.32 4.36 -7 3 C-8.32 3.33 -9.64 3.66 -11 4 C-11 3.01 -11 2.02 -11 1 C-3.63636364 -1.45454545 -3.63636364 -1.45454545 0 0 Z " fill="#D8D8D8" transform="translate(29,54)"/>
<path d="M0 0 C0.66 0 1.32 0 2 0 C2 0.66 2 1.32 2 2 C2.66 2 3.32 2 4 2 C4 1.34 4 0.68 4 0 C4.66 0 5.32 0 6 0 C6.33 0.66 6.66 1.32 7 2 C9.2931383 2.84228734 11.61494957 3.46932939 13.96875 4.12109375 C14.6390625 4.41113281 15.309375 4.70117188 16 5 C16.33 5.99 16.66 6.98 17 8 C10.31947833 12.15275671 4.79344413 12.75674048 -3 12 C-6.00190084 10.95367535 -8.2721565 9.67867292 -11 8 C-10.25390625 6.0703125 -10.25390625 6.0703125 -9 4 C-7.08984375 3.2421875 -7.08984375 3.2421875 -4.9375 2.875 C-2.82706125 2.53613267 -2.82706125 2.53613267 -1 2 C-0.67 1.34 -0.34 0.68 0 0 Z M-7 7 C-7 7.66 -7 8.32 -7 9 C-6.34 9 -5.68 9 -5 9 C-5 8.34 -5 7.68 -5 7 C-5.66 7 -6.32 7 -7 7 Z M11 7 C11 7.66 11 8.32 11 9 C11.66 9 12.32 9 13 9 C13 8.34 13 7.68 13 7 C12.34 7 11.68 7 11 7 Z M-2 8 C-2 8.66 -2 9.32 -2 10 C0.73905345 11.36952673 2.97087332 11.12621361 6 11 C6.66 10.67 7.32 10.34 8 10 C7.67 9.34 7.34 8.68 7 8 C4.03 8 1.06 8 -2 8 Z " fill="#D0D0D0" transform="translate(34,36)"/>
<path d="M0 0 C2.5625 0.1875 2.5625 0.1875 4.5625 2.1875 C4.1875 4.8125 4.1875 4.8125 3.5625 7.1875 C-1.1875 8.3125 -1.1875 8.3125 -3.4375 7.1875 C-3.4375 7.8475 -3.4375 8.5075 -3.4375 9.1875 C-4.18 9.31125 -4.9225 9.435 -5.6875 9.5625 C-8.36813477 10.04480426 -8.36813477 10.04480426 -10.3125 11.1875 C-13.27123456 12.57984567 -16.21054997 12.81515961 -19.4375 13.1875 C-19.46439216 11.70843108 -19.48384621 10.22922517 -19.5 8.75 C-19.51160156 7.92628906 -19.52320313 7.10257813 -19.53515625 6.25390625 C-19.4375 4.1875 -19.4375 4.1875 -18.4375 3.1875 C-12.61152942 2.71191056 -8.70941557 3.96774608 -3.4375 6.1875 C-3.458125 5.383125 -3.47875 4.57875 -3.5 3.75 C-3.41752104 0.36836272 -3.35428207 0.2580217 0 0 Z M-10.4375 6.1875 C-6.4375 7.1875 -6.4375 7.1875 -6.4375 7.1875 Z " fill="#EDEDEC" transform="translate(27.4375,29.8125)"/>
<path d="M0 0 C4.61803852 0 6.90440601 1.48062073 10.125 4.5625 C17.53492198 12.49564166 20.1910724 21.41889005 20.265625 32.1171875 C20 34 20 34 18 36 C18 33.36 18 30.72 18 28 C16.68 28 15.36 28 14 28 C13.67 27.01 13.34 26.02 13 25 C13.33 24.34 13.66 23.68 14 23 C14.66 23 15.32 23 16 23 C14.35 18.38 12.7 13.76 11 9 C8.69 9.33 6.38 9.66 4 10 C1.5625 7.5625 1.5625 7.5625 0 5 C0.66 4.01 1.32 3.02 2 2 C1.34 2 0.68 2 0 2 C0 1.34 0 0.68 0 0 Z " fill="#999998" transform="translate(48,9)"/>
<path d="M0 0 C-0.33 0.99 -0.66 1.98 -1 3 C-1.99 3.33 -2.98 3.66 -4 4 C-3.01 5.485 -3.01 5.485 -2 7 C-2.33 7.99 -2.66 8.98 -3 10 C-5.64 9.34 -8.28 8.68 -11 8 C-11.268125 8.886875 -11.53625 9.77375 -11.8125 10.6875 C-13 14 -13 14 -14.5 16.1875 C-16.4627279 19.86761482 -16.78742517 23.20530973 -17.1875 27.3125 C-17.3102832 28.42334961 -17.3102832 28.42334961 -17.43554688 29.55664062 C-17.63442588 31.36994923 -17.81869827 33.18484969 -18 35 C-20.65568549 30.68451109 -20.43394115 26.91444627 -19.3359375 22.0703125 C-16.44515098 13.20993431 -12.79766217 6.41504317 -5 1 C-3 0 -3 0 0 0 Z " fill="#7F7F7F" transform="translate(26,9)"/>
<path d="M0 0 C3.3 0 6.6 0 10 0 C10 0.99 10 1.98 10 3 C9.34 3 8.68 3 8 3 C7.67 5.97 7.34 8.94 7 12 C6.05125 11.814375 5.1025 11.62875 4.125 11.4375 C1.10131207 10.71313368 1.10131207 10.71313368 -1 12 C-1 11.01 -1 10.02 -1 9 C-1.66 8.67 -2.32 8.34 -3 8 C-2.25 5.5625 -2.25 5.5625 -1 3 C1.125 2.1875 1.125 2.1875 3 2 C2.01 1.34 1.02 0.68 0 0 Z " fill="#D5D5D5" transform="translate(39,11)"/>
<path d="M0 0 C2.625 -0.1875 2.625 -0.1875 5 0 C5.66 1.65 6.32 3.3 7 5 C7.9075 4.79375 8.815 4.5875 9.75 4.375 C13.11027897 3.9872755 14.24075815 4.19588033 17 6 C16.67 6.99 16.34 7.98 16 9 C14.37509046 9.02698189 12.75005367 9.04638757 11.125 9.0625 C10.22007813 9.07410156 9.31515625 9.08570313 8.3828125 9.09765625 C6 9 6 9 4 8 C2.33805547 7.64386903 0.671549 7.30791692 -1 7 C-1.625 5.1875 -1.625 5.1875 -2 3 C-1.34 2.01 -0.68 1.02 0 0 Z " fill="#E8E7E8" transform="translate(44,30)"/>
<path d="M0 0 C0.66 0.99 1.32 1.98 2 3 C4.55183404 4.20450304 4.55183404 4.20450304 7 5 C6.67 5.99 6.34 6.98 6 8 C5.195625 8.12375 4.39125 8.2475 3.5625 8.375 C2.716875 8.58125 1.87125 8.7875 1 9 C0.67 9.66 0.34 10.32 0 11 C-0.66 10.34 -1.32 9.68 -2 9 C-2 8.34 -2 7.68 -2 7 C-2.99 7 -3.98 7 -5 7 C-5.66 5.68 -6.32 4.36 -7 3 C-8.32 3.33 -9.64 3.66 -11 4 C-11 3.01 -11 2.02 -11 1 C-3.63636364 -1.45454545 -3.63636364 -1.45454545 0 0 Z " fill="#D7D7D7" transform="translate(29,54)"/>
<path d="M0 0 C0.33 1.65 0.66 3.3 1 5 C2.32 4.67 3.64 4.34 5 4 C5.144375 4.639375 5.28875 5.27875 5.4375 5.9375 C5.81007181 7.97545146 5.81007181 7.97545146 7 9 C8.34267413 9.08631874 9.68974322 9.10706473 11.03515625 9.09765625 C11.84404297 9.09443359 12.65292969 9.09121094 13.48632812 9.08789062 C14.7615332 9.07532227 14.7615332 9.07532227 16.0625 9.0625 C16.91650391 9.05798828 17.77050781 9.05347656 18.65039062 9.04882812 C20.76695663 9.03700373 22.88348685 9.01906769 25 9 C19.77287207 12.48475195 13.4690346 12.49647164 7.375 11.375 C1.49360506 9.83936047 -3.60692079 7.08961881 -7 2 C-4.35261084 0.5393715 -3.10551666 0 0 0 Z " fill="#B1B1B1" transform="translate(23,56)"/>
<path d="M0 0 C0.99 0.66 1.98 1.32 3 2 C3 2.99 3 3.98 3 5 C3.99 5.33 4.98 5.66 6 6 C5.67 6.66 5.34 7.32 5 8 C4.34 8 3.68 8 3 8 C2.67 9.32 2.34 10.64 2 12 C-0.97 11.67 -3.94 11.34 -7 11 C-6.67 8.69 -6.34 6.38 -6 4 C-5.01 4.33 -4.02 4.66 -3 5 C-3 4.34 -3 3.68 -3 3 C-1.5 1.375 -1.5 1.375 0 0 Z " fill="#E1E1E0" transform="translate(16,22)"/>
<path d="M0 0 C0.5775 0.4125 1.155 0.825 1.75 1.25 C3.64493204 3.90290485 3.3889556 5.8235293 3 9 C1.5 11.375 1.5 11.375 0 13 C0.33 11.02 0.66 9.04 1 7 C-1.31 7 -3.62 7 -6 7 C-6.33 5.68 -6.66 4.36 -7 3 C-7.639375 2.896875 -8.27875 2.79375 -8.9375 2.6875 C-9.618125 2.460625 -10.29875 2.23375 -11 2 C-11.33 1.01 -11.66 0.02 -12 -1 C-3.30612245 -2.44897959 -3.30612245 -2.44897959 0 0 Z M-10 0 C-10 0.33 -10 0.66 -10 1 C-8.35 1 -6.7 1 -5 1 C-5 0.67 -5 0.34 -5 0 C-6.65 0 -8.3 0 -10 0 Z " fill="#AEAEAE" transform="translate(62,41)"/>
<path d="M0 0 C3.11259604 0.345844 4.82872813 0.87379967 7.375 2.75 C9 5 9 5 8.75 7.75 C8.5025 8.4925 8.255 9.235 8 10 C4 10 4 10 2.25 8.5 C1.8375 8.005 1.425 7.51 1 7 C0.01 7.33 -0.98 7.66 -2 8 C-2 8.66 -2 9.32 -2 10 C-2.66 10 -3.32 10 -4 10 C-3.29445932 6.33118845 -1.72264494 3.29549466 0 0 Z " fill="#EFEFEE" transform="translate(15,17)"/>
<path d="M0 0 C0.66 0.33 1.32 0.66 2 1 C1.67 2.65 1.34 4.3 1 6 C1.66 5.67 2.32 5.34 3 5 C3 5.99 3 6.98 3 8 C3.598125 7.835 4.19625 7.67 4.8125 7.5 C7 7 7 7 10 7 C5.91193811 10.84616474 2.59282842 13.63589551 -3 15 C-2.67 14.34 -2.34 13.68 -2 13 C-1.34 13 -0.68 13 0 13 C-1.3553326 10.46326712 -1.3553326 10.46326712 -3 8 C-3.66 8 -4.32 8 -5 8 C-5 6.35 -5 4.7 -5 3 C-4.01 2.67 -3.02 2.34 -2 2 C-1.34 2.33 -0.68 2.66 0 3 C0 2.01 0 1.02 0 0 Z " fill="#BAB9B9" transform="translate(51,50)"/>
<path d="M0 0 C0.66 0.33 1.32 0.66 2 1 C2 2.32 2 3.64 2 5 C1.34 5 0.68 5 0 5 C0 6.65 0 8.3 0 10 C1.32 10 2.64 10 4 10 C4 11.98 4 13.96 4 16 C1.69 15.34 -0.62 14.68 -3 14 C-2.34 12.35 -1.68 10.7 -1 9 C-2.32 8.67 -3.64 8.34 -5 8 C-5 6.68 -5 5.36 -5 4 C-4.34 4 -3.68 4 -3 4 C-3 3.34 -3 2.68 -3 2 C-2.01 2 -1.02 2 0 2 C0 1.34 0 0.68 0 0 Z " fill="#ECECEC" transform="translate(62,27)"/>
<path d="M0 0 C0.66 0 1.32 0 2 0 C2 0.66 2 1.32 2 2 C3.32 2.33 4.64 2.66 6 3 C5 4 5 4 1.83984375 4.09765625 C-0.09181641 4.08025391 -0.09181641 4.08025391 -2.0625 4.0625 C-3.35285156 4.05347656 -4.64320312 4.04445313 -5.97265625 4.03515625 C-6.97167969 4.02355469 -7.97070312 4.01195313 -9 4 C-8.67 2.35 -8.34 0.7 -8 -1 C-3.375 -2.25 -3.375 -2.25 0 0 Z " fill="#E9E9E8" transform="translate(39,62)"/>
<path d="M0 0 C2.5625 0.1875 2.5625 0.1875 4.5625 2.1875 C4.1875 4.8125 4.1875 4.8125 3.5625 7.1875 C1.1875 7.8125 1.1875 7.8125 -1.4375 8.1875 C-3.4375 6.1875 -3.4375 6.1875 -3.625 3.625 C-3.37291261 0.34786389 -3.27713611 0.25208739 0 0 Z " fill="#EBEBEB" transform="translate(27.4375,29.8125)"/>
<path d="M0 0 C0 1.98 0 3.96 0 6 C-3.63 6 -7.26 6 -11 6 C-11 5.01 -11 4.02 -11 3 C-7.14243493 0.84694043 -4.44870215 -0.39253254 0 0 Z " fill="#DCDCDA" transform="translate(47,4)"/>
<path d="M0 0 C-0.33 0.99 -0.66 1.98 -1 3 C-1.99 3.33 -2.98 3.66 -4 4 C-3.01 5.485 -3.01 5.485 -2 7 C-2.33 7.99 -2.66 8.98 -3 10 C-5.31 9.34 -7.62 8.68 -10 8 C-9.875 6.25 -9.875 6.25 -9 4 C-3.88888889 0 -3.88888889 0 0 0 Z " fill="#888787" transform="translate(26,9)"/>
<path d="M0 0 C0.99 1.485 0.99 1.485 2 3 C2.99 3 3.98 3 5 3 C6.07525194 5.65228812 7.09456151 8.28368454 8 11 C7.01 11.495 7.01 11.495 6 12 C6 12.99 6 13.98 6 15 C1.21055351 10.21055351 0.16439013 6.72505081 0 0 Z " fill="#B5B5B4" transform="translate(9,43)"/>
<path d="M0 0 C2.875 0.3125 2.875 0.3125 6 1 C6.66 1.99 7.32 2.98 8 4 C5.525 3.01 5.525 3.01 3 2 C3 2.66 3 3.32 3 4 C3.804375 4.28875 4.60875 4.5775 5.4375 4.875 C8 6 8 6 9 8 C7.35 8.66 5.7 9.32 4 10 C2.68 8.35 1.36 6.7 0 5 C0.66 4.01 1.32 3.02 2 2 C1.34 2 0.68 2 0 2 C0 1.34 0 0.68 0 0 Z " fill="#969695" transform="translate(48,9)"/>
<path d="M0 0 C0.33 0 0.66 0 1 0 C1 1.65 1 3.3 1 5 C1.99 4.67 2.98 4.34 4 4 C6 7 6 7 6 10 C5.360625 9.814375 4.72125 9.62875 4.0625 9.4375 C3.0415625 9.2209375 3.0415625 9.2209375 2 9 C1.67 9.33 1.34 9.66 1 10 C-0.32 9.34 -1.64 8.68 -3 8 C-2.37240135 5.07120629 -1.41377341 2.63904371 0 0 Z " fill="#F4F4F4" transform="translate(45,53)"/>
<path d="M0 0 C1.875 0.1875 1.875 0.1875 4 1 C5.5225431 3.68257593 6.12235992 5.24544717 5.625 8.3125 C5.41875 8.869375 5.2125 9.42625 5 10 C3.35 9.67 1.7 9.34 0 9 C-0.33 8.01 -0.66 7.02 -1 6 C-0.01 6 0.98 6 2 6 C1.67 5.01 1.34 4.02 1 3 C0.34 2.67 -0.32 2.34 -1 2 C-0.67 1.34 -0.34 0.68 0 0 Z " fill="#F0F0F0" transform="translate(56,17)"/>
<path d="M0 0 C2.97 0.99 5.94 1.98 9 3 C9.33 2.34 9.66 1.68 10 1 C10.36923077 6.41538462 10.36923077 6.41538462 8.5 9.375 C8.005 9.91125 7.51 10.4475 7 11 C7.33 9.02 7.66 7.04 8 5 C5.69 5 3.38 5 1 5 C0.67 3.35 0.34 1.7 0 0 Z " fill="#A6A6A5" transform="translate(55,43)"/>
<path d="M0 0 C0.66 0.33 1.32 0.66 2 1 C2.375 3.25 2.375 3.25 2 6 C-1 8.3125 -1 8.3125 -4 10 C-4.66 9.67 -5.32 9.34 -6 9 C-6 8.01 -6 7.02 -6 6 C-5.01 6 -4.02 6 -3 6 C-3 5.34 -3 4.68 -3 4 C-2.34 4 -1.68 4 -1 4 C-0.67 2.68 -0.34 1.36 0 0 Z " fill="#DEDEDE" transform="translate(60,49)"/>
<path d="M0 0 C-0.33 0.99 -0.66 1.98 -1 3 C-4.3 3 -7.6 3 -11 3 C-11.33 2.01 -11.66 1.02 -12 0 C-7.45950903 -2.20538133 -4.52381649 -2.26190825 0 0 Z " fill="#B8B8B8" transform="translate(61,36)"/>
<path d="M0 0 C2.375 -0.125 2.375 -0.125 5 0 C7 2 7 2 7 6 C4.69 6 2.38 6 0 6 C0 4.02 0 2.04 0 0 Z " fill="#E5E5E4" transform="translate(27,4)"/>
<path d="M0 0 C1.98 0 3.96 0 6 0 C6.66 3.3 7.32 6.6 8 10 C4 7 4 7 3 4 C2.01 3.67 1.02 3.34 0 3 C0 2.01 0 1.02 0 0 Z " fill="#EBEBEA" transform="translate(10,43)"/>
<path d="M0 0 C1.051875 0.32484375 1.051875 0.32484375 2.125 0.65625 C7.96771693 2.3709604 12.91604388 3.34437487 19 3 C19.33 3.66 19.66 4.32 20 5 C12.11397658 5.4731614 6.79219135 5.17981006 0 1 C0 0.67 0 0.34 0 0 Z " fill="#C4C4C4" transform="translate(23,43)"/>
<path d="M0 0 C2.4375 0.8125 2.4375 0.8125 5 2 C5.33 2.99 5.66 3.98 6 5 C1.375 8 1.375 8 -2 8 C-2 7.34 -2 6.68 -2 6 C-0.68 6 0.64 6 2 6 C2 5.34 2 4.68 2 4 C1.34 4 0.68 4 0 4 C0 2.68 0 1.36 0 0 Z " fill="#CCCCCC" transform="translate(45,39)"/>
<path d="M0 0 C2.31 0 4.62 0 7 0 C7 1.65 7 3.3 7 5 C6.01 5 5.02 5 4 5 C4 4.34 4 3.68 4 3 C2.68 3.33 1.36 3.66 0 4 C0 2.68 0 1.36 0 0 Z " fill="#EFEFEF" transform="translate(25,40)"/>
<path d="M0 0 C0.66 0.33 1.32 0.66 2 1 C-2.08806189 4.84616474 -5.40717158 7.63589551 -11 9 C-10.67 8.34 -10.34 7.68 -10 7 C-9.34 7 -8.68 7 -8 7 C-8 6.01 -8 5.02 -8 4 C-7.01 4 -6.02 4 -5 4 C-5 3.34 -5 2.68 -5 2 C-4.360625 1.855625 -3.72125 1.71125 -3.0625 1.5625 C-1.02454854 1.18992819 -1.02454854 1.18992819 0 0 Z " fill="#969696" transform="translate(59,56)"/>
<path d="M0 0 C2.6875 0.375 2.6875 0.375 5 2.875 C5.8353125 4.1125 5.8353125 4.1125 6.6875 5.375 C6.0275 5.375 5.3675 5.375 4.6875 5.375 C4.6875 6.035 4.6875 6.695 4.6875 7.375 C4.0275 7.375 3.3675 7.375 2.6875 7.375 C2.0275 6.055 1.3675 4.735 0.6875 3.375 C-0.6325 3.705 -1.9525 4.035 -3.3125 4.375 C-3.3125 0.53716216 -3.3125 0.53716216 0 0 Z " fill="#F8F8F8" transform="translate(21.3125,53.625)"/>
<path d="M0 0 C1.65 0 3.3 0 5 0 C4.67 0.99 4.34 1.98 4 3 C1.4375 4.1875 1.4375 4.1875 -1 5 C-1 5.99 -1 6.98 -1 8 C-1.66 8 -2.32 8 -3 8 C-3 6.35 -3 4.7 -3 3 C-3.66 2.67 -4.32 2.34 -5 2 C-3.35 1.67 -1.7 1.34 0 1 C0 0.67 0 0.34 0 0 Z " fill="#9A9A9A" transform="translate(19,40)"/>
<path d="M0 0 C2.64 0.99 5.28 1.98 8 3 C4.46588679 5.12046792 1.05606165 5.53199289 -3 6 C-3 5.01 -3 4.02 -3 3 C-2.01 2.01 -1.02 1.02 0 0 Z " fill="#EEEEEE" transform="translate(11,37)"/>
<path d="M0 0 C1.98 0.66 3.96 1.32 6 2 C6.33 1.34 6.66 0.68 7 0 C7.99 0.66 8.98 1.32 10 2 C9.67 2.66 9.34 3.32 9 4 C5.37 4 1.74 4 -2 4 C-2 3.34 -2 2.68 -2 2 C-1.34 2 -0.68 2 0 2 C0 1.34 0 0.68 0 0 Z " fill="#B4B4B4" transform="translate(15,35)"/>
<path d="M0 0 C2.75383923 1.37691962 3.51483101 3.36720042 5 6 C4.01 6.495 4.01 6.495 3 7 C3 6.34 3 5.68 3 5 C2.34 5 1.68 5 1 5 C0.67 5.66 0.34 6.32 0 7 C-0.99 6.34 -1.98 5.68 -3 5 C-3 3 -3 3 -1.5 1.375 C-1.005 0.92125 -0.51 0.4675 0 0 Z " fill="#D5D5D4" transform="translate(54,18)"/>
<path d="M0 0 C5.96351455 1.27789598 8.48417174 4.33716394 12 9 C11.67 9.66 11.34 10.32 11 11 C10.29875 10.278125 9.5975 9.55625 8.875 8.8125 C6.9024876 6.8286838 4.85610734 5.01682261 2.6875 3.25 C1.800625 2.5075 0.91375 1.765 0 1 C0 0.67 0 0.34 0 0 Z " fill="#A1A1A1" transform="translate(51,11)"/>
<path d="M0 0 C2.375 -0.1875 2.375 -0.1875 5 0 C7 3 7 3 7 6 C6.34 6 5.68 6 5 6 C4.34 5.01 3.68 4.02 3 3 C1.68 3 0.36 3 -1 3 C-0.67 2.01 -0.34 1.02 0 0 Z " fill="#DEDEDE" transform="translate(26,25)"/>
<path d="M0 0 C1.65 0 3.3 0 5 0 C5 1.32 5 2.64 5 4 C3.02 4 1.04 4 -1 4 C-0.67 2.68 -0.34 1.36 0 0 Z " fill="#F4F4F4" transform="translate(38,14)"/>
<path d="M0 0 C0.99 0 1.98 0 3 0 C3 1.98 3 3.96 3 6 C1.02 5.34 -0.96 4.68 -3 4 C-1.6875 2 -1.6875 2 0 0 Z " fill="#E5E5E4" transform="translate(44,4)"/>
<path d="M0 0 C1.2065625 0.0309375 1.2065625 0.0309375 2.4375 0.0625 C2.7675 0.7225 3.0975 1.3825 3.4375 2.0625 C2.2309375 2.495625 2.2309375 2.495625 1 2.9375 C-1.6951468 3.79512568 -1.6951468 3.79512568 -2.5625 6.0625 C-3.2225 6.0625 -3.8825 6.0625 -4.5625 6.0625 C-3.48963568 0.08511307 -3.48963568 0.08511307 0 0 Z " fill="#DCDCDC" transform="translate(45.5625,24.9375)"/>
<path d="M0 0 C1.65 0.99 3.3 1.98 5 3 C3.68 3.99 2.36 4.98 1 6 C0.01 5.01 -0.98 4.02 -2 3 C-1.34 2.01 -0.68 1.02 0 0 Z " fill="#414141" transform="translate(52,13)"/>
<path d="M0 0 C1.32 0 2.64 0 4 0 C4.33 1.32 4.66 2.64 5 4 C3.02 4 1.04 4 -1 4 C-0.67 2.68 -0.34 1.36 0 0 Z " fill="#7E7B7B" transform="translate(35,50)"/>
<path d="M0 0 C-1.98 0.99 -1.98 0.99 -4 2 C-3.67 2.66 -3.34 3.32 -3 4 C-4.32 4 -5.64 4 -7 4 C-7 2.68 -7 1.36 -7 0 C-4.3333581 -1.33332095 -2.83319697 -0.67102033 0 0 Z " fill="#D3D3D2" transform="translate(15,36)"/>
<path d="M0 0 C0.99 0 1.98 0 3 0 C3 1.65 3 3.3 3 5 C1.02 5.99 1.02 5.99 -1 7 C-0.67 4.69 -0.34 2.38 0 0 Z " fill="#D9D9D8" transform="translate(28,16)"/>
<path d="M0 0 C0 3 0 3 -1 5 C-2.65 5 -4.3 5 -6 5 C-5.67 3.68 -5.34 2.36 -5 1 C-3.35 0.67 -1.7 0.34 0 0 Z " fill="#F2F2F1" transform="translate(36,60)"/>
<path d="M0 0 C2.25245881 2.68841859 3.88213958 4.64641875 5 8 C3.68 8.33 2.36 8.66 1 9 C0.67 6.03 0.34 3.06 0 0 Z " fill="#B2B2B2" transform="translate(19,46)"/>
<path d="M0 0 C0.66 0 1.32 0 2 0 C2 1.98 2 3.96 2 6 C1.34 6 0.68 6 0 6 C-0.33 6.66 -0.66 7.32 -1 8 C-1.04241723 5.66705225 -1.04092937 3.33297433 -1 1 C-0.67 0.67 -0.34 0.34 0 0 Z " fill="#F7F7F7" transform="translate(43,39)"/>
<path d="M0 0 C0.99 0.33 1.98 0.66 3 1 C2.67 2.32 2.34 3.64 2 5 C0.68 5 -0.64 5 -2 5 C-2.33 3.68 -2.66 2.36 -3 1 C-2.01 1.33 -1.02 1.66 0 2 C0 1.34 0 0.68 0 0 Z " fill="#BEBEBE" transform="translate(13,25)"/>
<path d="M0 0 C3.3 0 6.6 0 10 0 C10 0.99 10 1.98 10 3 C6.7 2.34 3.4 1.68 0 1 C0 0.67 0 0.34 0 0 Z " fill="#E6E6E6" transform="translate(39,11)"/>
<path d="M0 0 C1.65 0.33 3.3 0.66 5 1 C4.67 1.99 4.34 2.98 4 4 C2.02 4 0.04 4 -2 4 C-1.34 2.68 -0.68 1.36 0 0 Z " fill="#C6C6C6" transform="translate(31,58)"/>
<path d="M0 0 C2.97 0.33 5.94 0.66 9 1 C9 1.99 9 2.98 9 4 C6.03 3.01 3.06 2.02 0 1 C0 0.67 0 0.34 0 0 Z " fill="#ECECEC" transform="translate(55,42)"/>
<path d="M0 0 C0.66 0.33 1.32 0.66 2 1 C2 2.32 2 3.64 2 5 C0.35 5 -1.3 5 -3 5 C-3 4.01 -3 3.02 -3 2 C-2.01 2 -1.02 2 0 2 C0 1.34 0 0.68 0 0 Z " fill="#F9F8F8" transform="translate(62,27)"/>
<path d="M0 0 C1.32 0.33 2.64 0.66 4 1 C3.67 1.66 3.34 2.32 3 3 C2.34 3 1.68 3 1 3 C0.67 4.32 0.34 5.64 0 7 C-0.66 6.01 -1.32 5.02 -2 4 C-1.34 2.68 -0.68 1.36 0 0 Z " fill="#A0A0A0" transform="translate(18,27)"/>
<path d="M0 0 C1.98 0 3.96 0 6 0 C6.33 0.66 6.66 1.32 7 2 C4.36 2 1.72 2 -1 2 C-0.67 1.34 -0.34 0.68 0 0 Z " fill="#939393" transform="translate(34,33)"/>
</svg>
