<?xml version="1.0" standalone="no"?>
<!DOCTYPE svg PUBLIC "-//W3C//DTD SVG 20010904//EN"
 "http://www.w3.org/TR/2001/REC-SVG-20010904/DTD/svg10.dtd">
<svg version="1.0" xmlns="http://www.w3.org/2000/svg"
 width="60.000000pt" height="60.000000pt" viewBox="0 0 60.000000 60.000000"
 preserveAspectRatio="xMidYMid meet">

<g transform="translate(0.000000,60.000000) scale(0.100000,-0.100000)"
fill="#000000" stroke="none">
<path d="M240 541 c0 -11 6 -21 13 -24 7 -3 4 -7 -8 -11 -46 -16 -84 -39 -78
-48 3 -6 9 -5 14 3 4 7 11 10 15 6 4 -3 1 -13 -6 -22 -10 -12 -16 -13 -26 -4
-21 18 -17 28 21 51 43 25 40 36 -4 14 -61 -32 -107 -117 -118 -215 l-6 -60
42 11 c38 10 40 12 24 24 -16 13 -14 14 22 9 37 -5 36 -3 -5 12 -12 4 -11 7 5
13 11 5 15 9 8 9 -18 1 -4 32 29 63 22 20 28 35 28 68 0 51 22 51 31 -1 4 -19
7 -29 8 -23 1 13 61 74 72 74 3 0 4 -11 1 -25 -4 -21 0 -25 19 -25 17 0 20 -3
11 -9 -11 -7 -10 -10 3 -15 27 -10 35 -7 35 13 0 26 10 51 21 51 5 0 9 -17 9
-38 0 -29 8 -46 33 -72 18 -19 32 -42 32 -50 0 -8 4 -18 9 -22 6 -4 0 -12 -14
-18 -22 -9 -21 -10 10 -5 32 5 33 5 17 -8 -16 -14 -15 -15 18 -21 19 -4 38 -6
42 -4 22 9 7 98 -28 169 -19 39 -92 109 -112 108 -6 0 -3 -6 8 -14 62 -44 61
-43 44 -60 -14 -14 -17 -14 -34 5 -12 13 -14 20 -5 20 24 0 -9 27 -43 35 -22
5 -26 9 -14 12 24 6 22 43 -2 43 -10 0 -24 -7 -31 -15 -16 -19 -39 -19 -64 0
-27 21 -46 19 -46 -4z m107 -37 c2 -7 -9 -11 -27 -10 -17 1 -30 6 -30 14 0 16
52 12 57 -4z m148 -94 c3 -5 -1 -10 -9 -10 -9 0 -16 5 -16 10 0 6 4 10 9 10 6
0 13 -4 16 -10z m35 -53 c0 -4 -6 -2 -14 5 -8 7 -12 17 -9 22 5 8 23 -12 23
-27z m-400 4 c0 -18 -4 -19 -39 -12 -7 2 22 31 30 31 5 0 9 -9 9 -19z m430
-62 c0 -5 -9 -9 -20 -9 -22 0 -27 16 -7 23 15 5 27 -1 27 -14z m-450 -3 c0
-11 -19 -15 -25 -6 -3 5 1 10 9 10 9 0 16 -2 16 -4z m447 -32 c-3 -3 -12 -4
-19 -1 -8 3 -5 6 6 6 11 1 17 -2 13 -5z"/>
<path d="M455 460 c3 -5 8 -10 11 -10 2 0 4 5 4 10 0 6 -5 10 -11 10 -5 0 -7
-4 -4 -10z"/>
<path d="M235 373 c11 -3 26 -12 34 -21 13 -16 13 -16 7 1 -3 10 -6 21 -6 23
0 2 -12 3 -27 3 -21 -1 -23 -2 -8 -6z"/>
<path d="M365 369 c-11 -16 -2 -17 25 -2 24 12 24 13 3 13 -12 0 -25 -5 -28
-11z"/>
<path d="M214 325 c-8 -21 2 -45 19 -45 8 0 20 7 27 15 10 12 10 18 0 30 -7 8
-19 15 -27 15 -7 0 -16 -7 -19 -15z"/>
<path d="M374 325 c-8 -21 2 -45 19 -45 20 0 40 27 33 45 -7 19 -45 20 -52 0z"/>
<path d="M248 258 c-40 -10 -43 -15 -29 -36 6 -10 10 -8 15 10 l7 23 11 -25
c10 -24 10 -24 18 -5 5 11 9 15 9 8 1 -15 62 -13 73 2 5 6 8 3 8 -6 0 -30 25
-28 27 1 2 24 -3 29 -29 34 -39 8 -64 6 -110 -6z"/>
<path d="M400 241 c0 -6 5 -13 10 -16 6 -3 10 1 10 9 0 9 -4 16 -10 16 -5 0
-10 -4 -10 -9z"/>
<path d="M85 220 c-3 -5 -3 -15 1 -21 4 -8 9 -7 15 2 4 7 11 10 15 6 4 -4 -1
-13 -11 -21 -18 -13 -18 -14 3 -48 42 -68 124 -110 214 -110 74 0 135 29 188
89 44 50 48 61 25 69 -8 4 -15 11 -15 16 0 7 5 6 14 -1 10 -9 15 -8 19 3 8 19
-1 26 -32 26 -20 0 -30 -9 -44 -40 -10 -22 -22 -38 -27 -35 -5 3 -12 -4 -15
-16 -4 -11 -9 -18 -12 -15 -4 3 -12 -2 -20 -12 -12 -16 -13 -16 -6 2 6 17 3
17 -24 -4 -17 -12 -36 -20 -41 -16 -6 3 -13 0 -15 -6 -4 -10 -8 -9 -16 2 -6 8
-11 11 -11 7 0 -4 -10 -2 -22 5 -13 6 -29 13 -36 14 -21 4 -42 25 -42 43 0 12
-2 13 -8 3 -6 -9 -14 0 -28 28 -19 39 -54 55 -69 30z m378 -135 c-15 -11 -19
-11 -26 2 -6 10 -3 19 10 28 15 11 19 11 26 -2 6 -10 3 -19 -10 -28z m-260 20
c4 -8 1 -17 -5 -21 -7 -4 -8 -3 -4 4 5 8 -1 12 -16 13 -22 0 -22 1 -3 9 11 5
21 9 21 9 1 1 4 -6 7 -14z m67 -34 c0 -5 -11 -8 -25 -8 -29 0 -34 14 -7 20 20
4 32 0 32 -12z m128 -8 c-6 -7 -14 -10 -19 -7 -15 9 -10 20 10 20 15 0 17 -3
9 -13z"/>
<path d="M306 163 c-11 -11 -6 -23 9 -23 8 0 15 4 15 9 0 13 -16 22 -24 14z"/>
</g>
</svg>
